<svg xmlns="http://www.w3.org/2000/svg" width="1200" height="630" viewBox="0 0 1200 630">
  <defs>
    <linearGradient id="bg" x1="0" y1="0" x2="1" y2="1">
      <stop offset="0" stop-color="#0D1522"/><stop offset="1" stop-color="#222C3E"/>
    </linearGradient>
    <radialGradient id="glow" cx=".78" cy=".35" r=".6">
      <stop offset="0" stop-color="#B99455" stop-opacity=".30"/><stop offset="1" stop-color="#B99455" stop-opacity="0"/>
    </radialGradient>
  </defs>
  <rect width="1200" height="630" fill="url(#bg)"/>
  <rect width="1200" height="630" fill="url(#glow)"/>
  <rect x="38" y="38" width="1124" height="554" fill="none" stroke="#B99455" stroke-opacity=".45"/>
  <g fill="none" stroke="#B99455" stroke-opacity=".5" stroke-width="1.2">
    <circle cx="960" cy="300" r="190"/><circle cx="960" cy="300" r="140" stroke-opacity=".25"/>
  </g>
  <g fill="none" stroke="#D8B978" stroke-width="2" stroke-linecap="round">
    <path d="M960 190v230M900 226h120"/>
    <path d="M900 226l-32 62a32 32 0 0 0 64 0Z"/>
    <path d="M1020 226l-32 62a32 32 0 0 0 64 0Z"/>
    <path d="M928 420h64"/>
  </g>
  <g fill="none" stroke="#B99455" stroke-width="3.4" stroke-linecap="round" stroke-linejoin="round">
    <path d="M96 212V120h26a23 23 0 0 1 0 46H96M156 120v92M186 120l-30 46 33 46"/>
  </g>
  <text x="100" y="330" font-family="Cormorant Garamond Light" font-weight="600" font-size="76" fill="#FAFAF7">Priscila P. Kohlrausch</text>
  <text x="102" y="382" font-family="Manrope ExtraLight" font-size="21" font-weight="700" letter-spacing="6" fill="#B99455">ADVOCACIA E CONSULTORIA JURÍDICA</text>
  <path d="M100 424h620" stroke="#B99455" stroke-opacity=".4"/>
  <text x="100" y="474" font-family="Manrope ExtraLight" font-weight="500" font-size="24" fill="#A8AFBA">Direito Bancário  ·  Contratos e Consumidor</text>
  <text x="100" y="512" font-family="Manrope ExtraLight" font-weight="500" font-size="24" fill="#A8AFBA">Família e Sucessões</text>
  <text x="100" y="566" font-family="Manrope ExtraLight" font-size="19" font-weight="600" letter-spacing="3" fill="#D8B978">ATENDIMENTO INDIVIDUALIZADO</text>
</svg>
